{"title":"Twisted.Path.2010.720p.BRRip.x264.Feel-Free","uid":6198874,"size":1961871434,"categoryP":"video","categoryS":"hd___movies","magnet":"?xt=urn:btih:c2f5015316fc06c65f98f6aac5316669029d55b5&amp;dn=Twisted.Path.2010.720p.BRRip.x264.Feel-Free&amp;tr=udp%3A%2F%2Ftracker.openbittorrent.com%3A80&amp;tr=udp%3A%2F%2Fopen.demonii.com%3A1337&amp;tr=udp%3A%2F%2Ftracker.coppersurfer.tk%3A6969&amp;tr=udp%3A%2F%2Fexodus.desync.com%3A6969","seeders":0,"leechers":0,"uploader":"hiest","files":9,"time":1298537175,"description":"Genre:Mystery | Thriller\nLanguage:English\nIMDb:http://www.imdb.com/title/tt1241258/\nSource:BluRay.x264-HD4U\n\n\nFormat : MPEG-4\nFormat profile : Base Media\nCodec ID : isom\nFile size : 1.82 GiB\nDuration : 1h 13mn\nOverall bit rate : 3 549 Kbps\n\n\nVideo\nFormat profile : &lt;a class=&quot;__cf_email__&quot; href=&quot;/cdn-cgi/l/email-protection&quot; data-cfemail=&quot;6820010f0028245c4659&quot;&gt;[email&amp;#160;protected]&lt;/a&gt;&lt;script cf-hash='f9e31' type=&quot;text/javascript&quot;&gt;\n/* &lt;![CDATA[ */!function(){try{var t=&quot;currentScript&quot;in document?document.currentScript:function(){for(var t=document.getElementsByTagName(&quot;script&quot;),e=t.length;e--;)if(t[e].getAttribute(&quot;cf-hash&quot;))return t[e]}();if(t&amp;&amp;t.previousSibling){var e,r,n,i,c=t.previousSibling,a=c.getAttribute(&quot;data-cfemail&quot;);if(a){for(e=&quot;&quot;,r=parseInt(a.substr(0,2),16),n=2;a.length-n;n+=2)i=parseInt(a.substr(n,2),16)^r,e+=String.fromCharCode(i);e=document.createTextNode(e),c.parentNode.replaceChild(e,c)}}}catch(u){}}();/* ]]&gt; */&lt;/script&gt;\nFormat settings, CABAC : Yes\nFormat settings, ReFrames : 3 frames\nCodec ID : avc1\nCodec ID/Info : Advanced Video Coding\nDuration : 1h 13mn\nBit rate mode : Variable\nBit rate : 3 113 Kbps\nNominal bit rate : 3 346 Kbps\nMaximum bit rate : 17.4 Mbps\nWidth : 1 280 pixels\nHeight : 544 pixels\nDisplay aspect ratio : 2.35:1\nFrame rate mode : Constant\nFrame rate : 23.976 fps\nColor space : YUV\nChroma subsampling : 4:2:0\nBit depth : 8 bits\nScan type : Progressive\nBits/(Pixel*Frame) : 0.186\nStream size : 1.60 GiB (88%)\nWriting library : x264\n\nAudio\nID : 2\nFormat : AAC\nFormat/Info : Advanced Audio Codec\nFormat version : Version 4\nFormat profile : LC\nFormat settings, SBR : No\nCodec ID : 40\nDuration : 1h 13mn\nBit rate mode : Variable\nBit rate : 433 Kbps\nMaximum bit rate : 544 Kbps\nChannel(s) : 6 channels\nChannel positions : Front: L C R, Side: L R, LFE\nSampling rate : 48.0 KHz\nStream size : 228 MiB (12%)\n\n\n\nPlot:\nDarrin is traumatized by a horrific event he witnessed as a child. Now 25, he and his brother Sean travel to Italy to visit an old friend","torrent":{"xt":"urn:btih:c2f5015316fc06c65f98f6aac5316669029d55b5","amp;dn":"Twisted.Path.2010.720p.BRRip.x264.Feel-Free","amp;tr":["udp%3A%2F%2Ftracker.openbittorrent.com%3A80","udp%3A%2F%2Fopen.demonii.com%3A1337","udp%3A%2F%2Ftracker.coppersurfer.tk%3A6969","udp%3A%2F%2Fexodus.desync.com%3A6969"],"infoHash":"c2f5015316fc06c65f98f6aac5316669029d55b5","infoHashBuffer":{"type":"Buffer","data":[194,245,1,83,22,252,6,198,95,152,246,170,197,49,102,105,2,157,85,181]},"announce":[],"urlList":[]}}